<?xml version="1.0" standalone="no"?>
<!DOCTYPE svg PUBLIC "-//W3C//DTD SVG 20010904//EN"
 "http://www.w3.org/TR/2001/REC-SVG-20010904/DTD/svg10.dtd">
<svg version="1.0" xmlns="http://www.w3.org/2000/svg"
 width="77.000000pt" height="77.000000pt" viewBox="0 0 77.000000 77.000000"
 preserveAspectRatio="xMidYMid meet">
<metadata>
Created by potrace 1.11, written by Peter Selinger 2001-2013
</metadata>
<g transform="translate(0.000000,77.000000) scale(0.100000,-0.100000)"
fill="#000000" stroke="none">
<path d="M595 634 c-116 -25 -170 -53 -215 -115 -31 -44 -46 -83 -53 -141 -5
-44 5 -49 21 -13 18 39 77 98 122 124 51 28 51 21 0 -25 -38 -34 -110 -160
-110 -192 0 -12 10 -14 54 -9 156 16 258 130 273 303 l6 74 -39 -1 c-21 -1
-48 -3 -59 -5z"/>
<path d="M124 435 c-10 -26 3 -83 27 -116 24 -35 73 -59 118 -59 28 0 29 1 26
43 -4 73 -40 120 -98 132 -18 4 -40 9 -50 11 -10 3 -20 -1 -23 -11z"/>
</g>
</svg>
